<svg width="100" height="108" viewBox="0 0 100 108" fill="none" xmlns="http://www.w3.org/2000/svg">
<g clip-path="url(#clip0_1_3096)" filter="url(#filter0_d_1_3096)">
<path d="M28.1113 21.1678C27.7481 21.5309 27.5391 22.0352 27.5391 22.5487C27.5391 23.0644 27.7481 23.5664 28.1113 23.9296C28.4744 24.2928 28.9787 24.5018 29.4922 24.5018C30.0079 24.5018 30.5099 24.2928 30.8731 23.9296C31.2363 23.5664 31.4453 23.0644 31.4453 22.5487C31.4453 22.0352 31.2363 21.5309 30.8731 21.1678C30.5099 20.8046 30.0079 20.5956 29.4922 20.5956C28.9787 20.5956 28.4744 20.8046 28.1113 21.1678Z" fill="#333333"/>
<path d="M82.5554 20.5963H37.3047C36.2259 20.5963 35.3516 21.4706 35.3516 22.5494C35.3516 23.6282 36.2259 24.5026 37.3047 24.5026H82.5554C84.2049 24.5026 85.5469 25.8438 85.5469 27.4933V67.5781H72.5662C71.4874 67.5781 70.6131 68.4525 70.6131 69.5312C70.6131 70.61 71.4874 71.4844 72.5662 71.4844H85.5469V72.3991C85.5469 74.0486 84.2049 75.3906 82.5554 75.3906H25.5135C25.0534 75.3906 24.6078 75.5531 24.2554 75.8499L14.4531 84.1042V27.4933C14.4531 25.8438 15.7951 24.5026 17.4446 24.5026H21.6805C22.7585 24.5026 23.6336 23.6282 23.6336 22.5494C23.6336 21.4706 22.7585 20.5963 21.6805 20.5963H17.4446C13.6414 20.5963 10.5469 23.69 10.5469 27.4933V88.3026C10.5469 89.0625 10.9871 89.753 11.676 90.0734C11.9392 90.1955 12.22 90.2557 12.4992 90.2557C12.9517 90.2557 13.3987 90.0986 13.7581 89.7964L26.226 79.2969H82.5554C86.3586 79.2969 89.4531 76.2024 89.4531 72.3991V27.4933C89.4531 23.69 86.3586 20.5963 82.5554 20.5963Z" fill="#333333"/>
<path d="M50 13.6658C51.0788 13.6658 51.9531 12.7914 51.9531 11.7126V1.95312C51.9531 0.874328 51.0788 0 50 0C48.9212 0 48.0469 0.874328 48.0469 1.95312V11.7126C48.0469 12.7914 48.9212 13.6658 50 13.6658Z" fill="#333333"/>
<path d="M64.7209 14.4585C65.2214 14.4585 65.7204 14.2677 66.1018 13.8863L72.9301 7.05872C73.6931 6.29578 73.6931 5.05905 72.9301 4.29611C72.1672 3.53317 70.9305 3.53317 70.1675 4.29611L63.34 11.1237C62.5771 11.8866 62.5771 13.1233 63.34 13.8863C63.7215 14.2677 64.2212 14.4585 64.7209 14.4585Z" fill="#333333"/>
<path d="M33.8982 13.8733C34.2796 14.2548 34.7794 14.4455 35.2791 14.4455C35.7788 14.4455 36.2785 14.2548 36.66 13.8733C37.4229 13.1104 37.4229 11.8736 36.66 11.1107L29.8317 4.28314C29.0695 3.5202 27.8328 3.5202 27.0699 4.28314C26.3069 5.04608 26.3069 6.28204 27.0699 7.04498L33.8982 13.8733Z" fill="#333333"/>
<path d="M50 86.3342C48.9212 86.3342 48.0469 87.2086 48.0469 88.2874V98.0469C48.0469 99.1257 48.9212 100 50 100C51.0788 100 51.9531 99.1257 51.9531 98.0469V88.2874C51.9531 87.2086 51.0788 86.3342 50 86.3342Z" fill="#333333"/>
<path d="M66.1018 86.1137C65.3389 85.3508 64.1029 85.3508 63.34 86.1137C62.5771 86.8767 62.5771 88.1134 63.34 88.8763L70.1675 95.7039C70.549 96.0854 71.0487 96.2761 71.5485 96.2761C72.049 96.2761 72.5487 96.0854 72.9301 95.7039C73.6923 94.9409 73.6923 93.7042 72.9301 92.9413L66.1018 86.1137Z" fill="#333333"/>
<path d="M33.8982 86.1267L27.0699 92.955C26.3069 93.718 26.3069 94.9539 27.0699 95.7169C27.4513 96.0983 27.951 96.2891 28.4508 96.2891C28.9505 96.2891 29.4502 96.0983 29.8317 95.7169L36.66 88.8893C37.4229 88.1264 37.4229 86.8896 36.66 86.1267C35.8971 85.3638 34.6611 85.3638 33.8982 86.1267Z" fill="#333333"/>
<path d="M67.9527 48.7602C67.9527 43.6417 63.7894 39.4783 58.6708 39.4783H54.4334C53.3554 39.4783 52.4803 40.3526 52.4803 41.4314V58.6189C52.4803 59.697 53.3554 60.5721 54.4334 60.5721H58.6708C63.7886 60.5721 67.9527 56.4079 67.9527 51.2894V48.7602ZM64.0465 51.2894C64.0465 54.2542 61.6348 56.6658 58.6708 56.6658H56.3866V43.3846H58.6708C61.6348 43.3846 64.0465 45.7954 64.0465 48.7602V51.2894Z" fill="#333333"/>
<path d="M33.8013 53.0853L32.1495 57.9956C31.8054 59.0179 32.3547 60.1257 33.3771 60.4698C34.4009 60.8139 35.5072 60.2638 35.8513 59.2415L37.0705 55.6183H42.4965L43.7157 59.2415C43.9896 60.0571 44.7502 60.5721 45.5665 60.5721C45.7733 60.5721 45.9831 60.5392 46.1891 60.4698C47.2114 60.1257 47.7615 59.0179 47.4174 57.9956L41.6344 40.8081C41.3673 40.0131 40.6219 39.4783 39.7835 39.4783C38.945 39.4783 38.1996 40.0131 37.9326 40.8081L33.8028 53.0815C33.802 53.083 33.8013 53.0838 33.8013 53.0853ZM39.7835 47.5555L41.1819 51.712H38.385L39.7835 47.5555Z" fill="#333333"/>
<path d="M63.4705 68.1503C63.1073 68.5135 62.8983 69.0178 62.8983 69.5312C62.8983 70.047 63.1073 70.549 63.4705 70.9122C63.8344 71.2753 64.3379 71.4844 64.8514 71.4844C65.3656 71.4844 65.8691 71.2753 66.2323 70.9122C66.5955 70.549 66.8045 70.0447 66.8045 69.5312C66.8045 69.0178 66.5955 68.5135 66.2323 68.1503C65.8691 67.7872 65.3656 67.5781 64.8514 67.5781C64.3379 67.5781 63.8336 67.7872 63.4705 68.1503Z" fill="#333333"/>
</g>
<defs>
<filter id="filter0_d_1_3096" x="-4" y="0" width="108" height="108" filterUnits="userSpaceOnUse" color-interpolation-filters="sRGB">
<feFlood flood-opacity="0" result="BackgroundImageFix"/>
<feColorMatrix in="SourceAlpha" type="matrix" values="0 0 0 0 0 0 0 0 0 0 0 0 0 0 0 0 0 0 127 0" result="hardAlpha"/>
<feOffset dy="4"/>
<feGaussianBlur stdDeviation="2"/>
<feComposite in2="hardAlpha" operator="out"/>
<feColorMatrix type="matrix" values="0 0 0 0 0 0 0 0 0 0 0 0 0 0 0 0 0 0 0.25 0"/>
<feBlend mode="normal" in2="BackgroundImageFix" result="effect1_dropShadow_1_3096"/>
<feBlend mode="normal" in="SourceGraphic" in2="effect1_dropShadow_1_3096" result="shape"/>
</filter>
<clipPath id="clip0_1_3096">
<rect width="100" height="100" fill="white"/>
</clipPath>
</defs>
</svg>
