<svg width="247" height="247" viewBox="0 0 247 247" fill="none" xmlns="http://www.w3.org/2000/svg">
<path opacity="0.148647" fill-rule="evenodd" clip-rule="evenodd" d="M7.48319 120.708C9.04644 122.269 9.04831 124.802 7.48737 126.365C5.92643 127.928 3.39377 127.93 1.83052 126.369C0.267266 124.808 0.265393 122.276 1.82633 120.712C3.38728 119.149 5.91994 119.147 7.48319 120.708ZM24.4412 103.725C26.0044 105.286 26.0063 107.819 24.4454 109.382C22.8844 110.945 20.3518 110.947 18.7885 109.386C17.2253 107.825 17.2234 105.292 18.7843 103.729C20.3453 102.166 22.8779 102.164 24.4412 103.725ZM41.4034 92.3988C42.9643 90.8355 42.9625 88.3029 41.3992 86.7419C39.836 85.181 37.3033 85.1829 35.7424 86.7461C34.1814 88.3094 34.1833 90.842 35.7465 92.403C37.3098 93.9639 39.8424 93.962 41.4034 92.3988ZM58.3572 69.7588C59.9205 71.3198 59.9223 73.8524 58.3614 75.4157C56.8005 76.9789 54.2678 76.9808 52.7045 75.4199C51.1413 73.8589 51.1394 71.3263 52.7004 69.763C54.2613 68.1998 56.794 68.1979 58.3572 69.7588ZM75.3194 58.4326C76.8803 56.8693 76.8785 54.3367 75.3152 52.7757C73.752 51.2148 71.2193 51.2166 69.6584 52.7799C68.0974 54.3431 68.0993 56.8758 69.6626 58.4367C71.2258 59.9977 73.7585 59.9958 75.3194 58.4326ZM92.2732 35.7926C93.8365 37.3535 93.8384 39.8862 92.2774 41.4495C90.7165 43.0127 88.1838 43.0146 86.6206 41.4536C85.0573 39.8927 85.0554 37.36 86.6164 35.7968C88.1773 34.2335 90.71 34.2317 92.2732 35.7926ZM109.235 24.4663C110.796 22.9031 110.794 20.3704 109.231 18.8095C107.668 17.2486 105.135 17.2504 103.574 18.8137C102.013 20.3769 102.015 22.9096 103.579 24.4705C105.142 26.0315 107.674 26.0296 109.235 24.4663ZM126.189 1.82639C127.752 3.38733 127.754 5.91999 126.193 7.48324C124.632 9.04649 122.1 9.04837 120.537 7.48743C118.973 5.92648 118.971 3.39382 120.532 1.83057C122.093 0.267322 124.626 0.265447 126.189 1.82639ZM24.4705 143.323C26.0314 141.76 26.0295 139.227 24.4663 137.666C22.903 136.105 20.3704 136.107 18.8094 137.67C17.2485 139.234 17.2504 141.766 18.8136 143.327C20.3769 144.888 22.9095 144.886 24.4705 143.323ZM41.4243 120.683C42.9876 122.244 42.9894 124.777 41.4285 126.34C39.8675 127.903 37.3349 127.905 35.7716 126.344C34.2084 124.783 34.2065 122.25 35.7675 120.687C37.3284 119.124 39.8611 119.122 41.4243 120.683ZM58.3865 109.357C59.9474 107.794 59.9456 105.261 58.3823 103.7C56.8191 102.139 54.2864 102.141 52.7255 103.704C51.1645 105.267 51.1664 107.8 52.7296 109.361C54.2929 110.922 56.8256 110.92 58.3865 109.357ZM75.3403 86.7168C76.9036 88.2778 76.9054 90.8104 75.3445 92.3737C73.7836 93.9369 71.2509 93.9388 69.6877 92.3779C68.1244 90.8169 68.1225 88.2843 69.6835 86.721C71.2444 85.1578 73.7771 85.1559 75.3403 86.7168ZM92.3025 75.3906C93.8635 73.8273 93.8616 71.2947 92.2983 69.7337C90.7351 68.1728 88.2024 68.1747 86.6415 69.7379C85.0805 71.3012 85.0824 73.8338 86.6457 75.3948C88.2089 76.9557 90.7416 76.9538 92.3025 75.3906ZM109.256 52.7506C110.82 54.3116 110.821 56.8442 109.261 58.4075C107.7 59.9707 105.167 59.9726 103.604 58.4116C102.04 56.8507 102.039 54.318 103.599 52.7548C105.16 51.1915 107.693 51.1897 109.256 52.7506ZM126.219 41.4244C127.779 39.8611 127.778 37.3284 126.214 35.7675C124.651 34.2066 122.118 34.2084 120.557 35.7717C118.997 37.3349 118.998 39.8676 120.562 41.4285C122.125 42.9895 124.658 42.9876 126.219 41.4244ZM143.172 18.7844C144.736 20.3453 144.737 22.878 143.177 24.4413C141.616 26.0045 139.083 26.0064 137.52 24.4454C135.956 22.8845 135.955 20.3518 137.516 18.7886C139.076 17.2253 141.609 17.2235 143.172 18.7844ZM41.4536 160.281C43.0145 158.718 43.0127 156.185 41.4494 154.624C39.8862 153.063 37.3535 153.065 35.7926 154.628C34.2316 156.192 34.2335 158.724 35.7967 160.285C37.36 161.846 39.8926 161.844 41.4536 160.281ZM58.4074 137.641C59.9707 139.202 59.9725 141.735 58.4116 143.298C56.8507 144.861 54.318 144.863 52.7547 143.302C51.1915 141.741 51.1896 139.208 52.7506 137.645C54.3115 136.082 56.8442 136.08 58.4074 137.641ZM75.3696 126.315C76.9305 124.752 76.9287 122.219 75.3654 120.658C73.8022 119.097 71.2695 119.099 69.7086 120.662C68.1476 122.225 68.1495 124.758 69.7128 126.319C71.276 127.88 73.8087 127.878 75.3696 126.315ZM92.3234 103.675C93.8867 105.236 93.8886 107.768 92.3276 109.332C90.7667 110.895 88.234 110.897 86.6708 109.336C85.1075 107.775 85.1056 105.242 86.6666 103.679C88.2275 102.116 90.7602 102.114 92.3234 103.675ZM109.286 92.3486C110.847 90.7853 110.845 88.2527 109.281 86.6917C107.718 85.1308 105.186 85.1327 103.625 86.6959C102.064 88.2592 102.066 90.7918 103.629 92.3528C105.192 93.9137 107.725 93.9118 109.286 92.3486ZM126.239 69.7086C127.803 71.2696 127.805 73.8022 126.244 75.3655C124.683 76.9287 122.15 76.9306 120.587 75.3697C119.024 73.8087 119.022 71.2761 120.583 69.7128C122.144 68.1496 124.676 68.1477 126.239 69.7086ZM143.202 58.3824C144.763 56.8191 144.761 54.2865 143.197 52.7255C141.634 51.1646 139.102 51.1664 137.541 52.7297C135.98 54.2929 135.982 56.8256 137.545 58.3865C139.108 59.9475 141.641 59.9456 143.202 58.3824ZM160.155 35.7424C161.719 37.3033 161.721 39.836 160.16 41.3993C158.599 42.9625 156.066 42.9644 154.503 41.4034C152.94 39.8425 152.938 37.3098 154.499 35.7466C156.06 34.1833 158.592 34.1815 160.155 35.7424ZM58.4367 177.239C59.9976 175.676 59.9958 173.143 58.4325 171.582C56.8693 170.021 54.3366 170.023 52.7757 171.586C51.2147 173.15 51.2166 175.682 52.7798 177.243C54.3431 178.804 56.8758 178.802 58.4367 177.239ZM75.3905 154.599C76.9538 156.16 76.9556 158.693 75.3947 160.256C73.8338 161.819 71.3011 161.821 69.7379 160.26C68.1746 158.699 68.1727 156.166 69.7337 154.603C71.2946 153.04 73.8273 153.038 75.3905 154.599ZM92.3527 143.273C93.9137 141.71 93.9118 139.177 92.3485 137.616C90.7853 136.055 88.2526 136.057 86.6917 137.62C85.1307 139.183 85.1326 141.716 86.6959 143.277C88.2591 144.838 90.7918 144.836 92.3527 143.273ZM109.307 120.633C110.87 122.194 110.872 124.726 109.311 126.29C107.75 127.853 105.217 127.855 103.654 126.294C102.091 124.733 102.089 122.2 103.65 120.637C105.211 119.074 107.743 119.072 109.307 120.633ZM126.269 109.307C127.83 107.743 127.828 105.211 126.265 103.65C124.701 102.089 122.169 102.091 120.608 103.654C119.047 105.217 119.049 107.75 120.612 109.311C122.175 110.872 124.708 110.87 126.269 109.307ZM143.223 86.6666C144.786 88.2276 144.788 90.7602 143.227 92.3235C141.666 93.8867 139.133 93.8886 137.57 92.3277C136.007 90.7667 136.005 88.2341 137.566 86.6708C139.127 85.1076 141.659 85.1057 143.223 86.6666ZM160.185 75.3404C161.746 73.7771 161.744 71.2445 160.181 69.6835C158.617 68.1226 156.085 68.1245 154.524 69.6877C152.963 71.251 152.965 73.7836 154.528 75.3446C156.091 76.9055 158.624 76.9036 160.185 75.3404ZM177.139 52.7004C178.702 54.2614 178.704 56.794 177.143 58.3573C175.582 59.9205 173.049 59.9224 171.486 58.3614C169.923 56.8005 169.921 54.2678 171.482 52.7046C173.043 51.1413 175.575 51.1395 177.139 52.7004ZM75.4198 194.197C76.9807 192.634 76.9789 190.101 75.4156 188.54C73.8524 186.979 71.3197 186.981 69.7588 188.544C68.1978 190.108 68.1997 192.64 69.763 194.201C71.3262 195.762 73.8589 195.76 75.4198 194.197ZM92.3736 171.557C93.9369 173.118 93.9388 175.651 92.3778 177.214C90.8169 178.777 88.2842 178.779 86.721 177.218C85.1577 175.657 85.1558 173.125 86.7168 171.561C88.2777 169.998 90.8104 169.996 92.3736 171.557ZM109.336 160.231C110.897 158.668 110.895 156.135 109.332 154.574C107.768 153.013 105.236 153.015 103.675 154.578C102.114 156.141 102.116 158.674 103.679 160.235C105.242 161.796 107.775 161.794 109.336 160.231ZM126.29 137.591C127.853 139.152 127.855 141.684 126.294 143.248C124.733 144.811 122.2 144.813 120.637 143.252C119.074 141.691 119.072 139.158 120.633 137.595C122.194 136.032 124.726 136.03 126.29 137.591ZM143.252 126.265C144.813 124.701 144.811 122.169 143.248 120.608C141.684 119.047 139.152 119.049 137.591 120.612C136.03 122.175 136.032 124.708 137.595 126.269C139.158 127.83 141.691 127.828 143.252 126.265ZM160.206 103.625C161.769 105.186 161.771 107.718 160.21 109.281C158.649 110.845 156.116 110.847 154.553 109.286C152.99 107.725 152.988 105.192 154.549 103.629C156.11 102.066 158.642 102.064 160.206 103.625ZM177.168 92.2984C178.729 90.7351 178.727 88.2025 177.164 86.6415C175.6 85.0806 173.068 85.0825 171.507 86.6457C169.946 88.209 169.948 90.7416 171.511 92.3026C173.074 93.8635 175.607 93.8616 177.168 92.2984ZM194.122 69.6584C195.685 71.2194 195.687 73.752 194.126 75.3153C192.565 76.8785 190.032 76.8804 188.469 75.3195C186.906 73.7585 186.904 71.2259 188.465 69.6626C190.026 68.0994 192.558 68.0975 194.122 69.6584ZM92.4029 211.155C93.9639 209.592 93.962 207.059 92.3987 205.498C90.8355 203.937 88.3028 203.939 86.7419 205.502C85.1809 207.066 85.1828 209.598 86.7461 211.159C88.3093 212.72 90.842 212.718 92.4029 211.155ZM109.357 188.515C110.92 190.076 110.922 192.609 109.361 194.172C107.8 195.735 105.267 195.737 103.704 194.176C102.141 192.615 102.139 190.083 103.7 188.519C105.261 186.956 107.793 186.954 109.357 188.515ZM126.319 177.189C127.88 175.626 127.878 173.093 126.315 171.532C124.751 169.971 122.219 169.973 120.658 171.536C119.097 173.099 119.099 175.632 120.662 177.193C122.225 178.754 124.758 178.752 126.319 177.189ZM143.273 154.549C144.836 156.11 144.838 158.642 143.277 160.206C141.716 161.769 139.183 161.771 137.62 160.21C136.057 158.649 136.055 156.116 137.616 154.553C139.177 152.99 141.71 152.988 143.273 154.549ZM160.235 143.223C161.796 141.659 161.794 139.127 160.231 137.566C158.668 136.005 156.135 136.007 154.574 137.57C153.013 139.133 153.015 141.666 154.578 143.227C156.141 144.788 158.674 144.786 160.235 143.223ZM177.189 120.583C178.752 122.144 178.754 124.676 177.193 126.239C175.632 127.803 173.099 127.805 171.536 126.244C169.973 124.683 169.971 122.15 171.532 120.587C173.093 119.024 175.626 119.022 177.189 120.583ZM194.151 109.256C195.712 107.693 195.71 105.16 194.147 103.6C192.584 102.039 190.051 102.04 188.49 103.604C186.929 105.167 186.931 107.7 188.494 109.261C190.057 110.822 192.59 110.82 194.151 109.256ZM211.105 86.6164C212.668 88.1774 212.67 90.71 211.109 92.2733C209.548 93.8365 207.015 93.8384 205.452 92.2775C203.889 90.7165 203.887 88.1839 205.448 86.6206C207.009 85.0574 209.542 85.0555 211.105 86.6164ZM109.386 228.113C110.947 226.55 110.945 224.017 109.382 222.456C107.819 220.895 105.286 220.897 103.725 222.46C102.164 224.024 102.166 226.556 103.729 228.117C105.292 229.678 107.825 229.676 109.386 228.113ZM126.34 205.473C127.903 207.034 127.905 209.567 126.344 211.13C124.783 212.693 122.25 212.695 120.687 211.134C119.124 209.573 119.122 207.041 120.683 205.477C122.244 203.914 124.777 203.912 126.34 205.473ZM143.302 194.147C144.863 192.584 144.861 190.051 143.298 188.49C141.735 186.929 139.202 186.931 137.641 188.494C136.08 190.057 136.082 192.59 137.645 194.151C139.208 195.712 141.741 195.71 143.302 194.147ZM160.256 171.507C161.819 173.068 161.821 175.6 160.26 177.164C158.699 178.727 156.166 178.729 154.603 177.168C153.04 175.607 153.038 173.074 154.599 171.511C156.16 169.948 158.693 169.946 160.256 171.507ZM177.218 160.181C178.779 158.617 178.777 156.085 177.214 154.524C175.651 152.963 173.118 152.965 171.557 154.528C169.996 156.091 169.998 158.624 171.561 160.185C173.124 161.746 175.657 161.744 177.218 160.181ZM194.172 137.541C195.735 139.102 195.737 141.634 194.176 143.198C192.615 144.761 190.082 144.763 188.519 143.202C186.956 141.641 186.954 139.108 188.515 137.545C190.076 135.982 192.609 135.98 194.172 137.541ZM211.134 126.214C212.695 124.651 212.693 122.118 211.13 120.558C209.567 118.997 207.034 118.998 205.473 120.562C203.912 122.125 203.914 124.658 205.477 126.219C207.04 127.78 209.573 127.778 211.134 126.214ZM228.088 103.574C229.651 105.135 229.653 107.668 228.092 109.231C226.531 110.795 223.998 110.796 222.435 109.235C220.872 107.675 220.87 105.142 222.431 103.579C223.992 102.015 226.525 102.013 228.088 103.574ZM126.369 245.071C127.93 243.508 127.928 240.975 126.365 239.414C124.802 237.853 122.269 237.855 120.708 239.418C119.147 240.982 119.149 243.514 120.712 245.075C122.276 246.636 124.808 246.634 126.369 245.071ZM143.323 222.431C144.886 223.992 144.888 226.525 143.327 228.088C141.766 229.651 139.234 229.653 137.67 228.092C136.107 226.531 136.105 223.999 137.666 222.435C139.227 220.872 141.76 220.87 143.323 222.431ZM160.285 211.105C161.846 209.542 161.844 207.009 160.281 205.448C158.718 203.887 156.185 203.889 154.624 205.452C153.063 207.015 153.065 209.548 154.628 211.109C156.192 212.67 158.724 212.668 160.285 211.105ZM177.239 188.465C178.802 190.026 178.804 192.558 177.243 194.122C175.682 195.685 173.15 195.687 171.586 194.126C170.023 192.565 170.021 190.032 171.582 188.469C173.143 186.906 175.676 186.904 177.239 188.465ZM194.201 177.139C195.762 175.575 195.76 173.043 194.197 171.482C192.634 169.921 190.101 169.923 188.54 171.486C186.979 173.049 186.981 175.582 188.544 177.143C190.108 178.704 192.64 178.702 194.201 177.139ZM211.155 154.499C212.718 156.06 212.72 158.592 211.159 160.156C209.598 161.719 207.066 161.721 205.502 160.16C203.939 158.599 203.937 156.066 205.498 154.503C207.059 152.94 209.592 152.938 211.155 154.499ZM228.117 143.172C229.678 141.609 229.676 139.076 228.113 137.516C226.55 135.955 224.017 135.956 222.456 137.52C220.895 139.083 220.897 141.616 222.46 143.177C224.024 144.738 226.556 144.736 228.117 143.172ZM245.071 120.532C246.634 122.093 246.636 124.626 245.075 126.189C243.514 127.753 240.982 127.754 239.418 126.193C237.855 124.633 237.853 122.1 239.414 120.537C240.975 118.973 243.508 118.972 245.071 120.532Z" fill="#4F9EEC"/>
</svg>
