<svg width="158" height="29" viewBox="0 0 158 29" fill="none" xmlns="http://www.w3.org/2000/svg">
<path d="M14.4575 4.22089V0H0V29H14.4575V24.7791C11.4959 24.7791 8.65552 23.6961 6.56138 21.7684C4.4672 19.8407 3.2907 17.2262 3.2907 14.5C3.2907 11.7738 4.4672 9.15924 6.56138 7.23157C8.65552 5.30387 11.4959 4.22089 14.4575 4.22089Z" fill="#6D58EF"/>
<path d="M14.4575 4V25C17.1964 25 19.8231 23.8937 21.7597 21.9246C23.6964 19.9554 24.7843 17.2848 24.7843 14.5C24.7843 11.7152 23.6964 9.04447 21.7597 7.07538C19.8231 5.10625 17.1964 4 14.4575 4Z" fill="#509EEC"/>
<path d="M38.44 21.2C36.2133 21.2 34.52 20.64 33.36 19.52C32.2 18.3867 31.62 16.7933 31.62 14.74C31.62 12.5933 32.2133 10.92 33.4 9.72C34.5867 8.52 36.3333 7.92 38.64 7.92C39.4267 7.92 40.1333 7.96667 40.76 8.06C41.4 8.15333 42.0067 8.29333 42.58 8.48V11.24C42.0067 11.0267 41.4067 10.88 40.78 10.8C40.1667 10.72 39.5333 10.68 38.88 10.68C37.4933 10.68 36.48 11.0133 35.84 11.68C35.2133 12.3333 34.9 13.3533 34.9 14.74C34.9 16.0067 35.2 16.9467 35.8 17.56C36.4 18.16 37.2867 18.46 38.46 18.46C39.2333 18.46 39.9533 18.3533 40.62 18.14V15.7H37.84V13.68H43.32V20.06C42.8667 20.3533 42.2333 20.62 41.42 20.86C40.62 21.0867 39.6267 21.2 38.44 21.2ZM49.9692 21.2C48.2759 21.2 46.9492 20.7867 45.9892 19.96C45.0426 19.1333 44.5692 17.9 44.5692 16.26C44.5692 14.5933 45.0626 13.3533 46.0492 12.54C47.0492 11.7267 48.3759 11.32 50.0292 11.32C50.7226 11.32 51.3226 11.3733 51.8292 11.48C52.3492 11.5733 52.8492 11.7333 53.3292 11.96V14.24C52.5826 13.88 51.7092 13.7 50.7092 13.7C49.7759 13.7 49.0626 13.8867 48.5692 14.26C48.0892 14.6333 47.8492 15.3 47.8492 16.26C47.8492 17.1533 48.0759 17.8067 48.5292 18.22C48.9826 18.62 49.7026 18.82 50.6892 18.82C51.6626 18.82 52.5492 18.62 53.3492 18.22V20.6C52.8692 20.8133 52.3492 20.9667 51.7892 21.06C51.2426 21.1533 50.6359 21.2 49.9692 21.2ZM59.9288 21.2C58.1021 21.2 56.7554 20.78 55.8888 19.94C55.0221 19.0867 54.5888 17.86 54.5888 16.26C54.5888 14.6733 55.0221 13.4533 55.8888 12.6C56.7688 11.7467 58.1154 11.32 59.9288 11.32C61.7554 11.32 63.1021 11.7467 63.9688 12.6C64.8488 13.4533 65.2888 14.6733 65.2888 16.26C65.2888 17.86 64.8554 19.0867 63.9888 19.94C63.1221 20.78 61.7688 21.2 59.9288 21.2ZM59.9288 18.68C60.6754 18.68 61.2088 18.4933 61.5288 18.12C61.8488 17.7467 62.0088 17.1267 62.0088 16.26C62.0088 15.3933 61.8488 14.7733 61.5288 14.4C61.2088 14.0267 60.6754 13.84 59.9288 13.84C59.1954 13.84 58.6688 14.0267 58.3488 14.4C58.0288 14.7733 57.8688 15.3933 57.8688 16.26C57.8688 17.1267 58.0288 17.7467 58.3488 18.12C58.6688 18.4933 59.1954 18.68 59.9288 18.68ZM66.9223 21V11.52H69.9823L70.0823 12.4C70.4957 12.1467 71.009 11.92 71.6223 11.72C72.2357 11.5067 72.849 11.3733 73.4623 11.32V13.74C73.1157 13.78 72.729 13.8467 72.3023 13.94C71.889 14.02 71.489 14.12 71.1023 14.24C70.729 14.36 70.409 14.4867 70.1423 14.62V21H66.9223ZM74.6763 25.32V11.52H77.4763L77.6363 12.34C78.0229 12.02 78.4563 11.7733 78.9362 11.6C79.4163 11.4133 79.9763 11.32 80.6163 11.32C81.9629 11.32 83.0296 11.6867 83.8163 12.42C84.6029 13.14 84.9963 14.3533 84.9963 16.06C84.9963 17.7533 84.5896 19.0333 83.7763 19.9C82.9763 20.7667 81.8696 21.2 80.4563 21.2C79.4563 21.2 78.6029 20.9933 77.8963 20.58V25.32H74.6763ZM79.6363 18.84C81.0229 18.84 81.7163 17.8933 81.7163 16C81.7163 15.0933 81.5563 14.48 81.2363 14.16C80.9163 13.84 80.4029 13.68 79.6963 13.68C79.0163 13.68 78.4163 13.92 77.8963 14.4V18.24C78.1496 18.4267 78.4029 18.5733 78.6562 18.68C78.9229 18.7867 79.2496 18.84 79.6363 18.84ZM91.5694 21.2C89.7427 21.2 88.396 20.78 87.5294 19.94C86.6627 19.0867 86.2294 17.86 86.2294 16.26C86.2294 14.6733 86.6627 13.4533 87.5294 12.6C88.4094 11.7467 89.756 11.32 91.5694 11.32C93.396 11.32 94.7427 11.7467 95.6094 12.6C96.4894 13.4533 96.9294 14.6733 96.9294 16.26C96.9294 17.86 96.496 19.0867 95.6294 19.94C94.7627 20.78 93.4094 21.2 91.5694 21.2ZM91.5694 18.68C92.316 18.68 92.8494 18.4933 93.1694 18.12C93.4894 17.7467 93.6494 17.1267 93.6494 16.26C93.6494 15.3933 93.4894 14.7733 93.1694 14.4C92.8494 14.0267 92.316 13.84 91.5694 13.84C90.836 13.84 90.3094 14.0267 89.9894 14.4C89.6694 14.7733 89.5094 15.3933 89.5094 16.26C89.5094 17.1267 89.6694 17.7467 89.9894 18.12C90.3094 18.4933 90.836 18.68 91.5694 18.68Z" fill="#6D58EF"/>
<path d="M98.563 21V11.52H101.623L101.723 12.4C102.136 12.1467 102.65 11.92 103.263 11.72C103.876 11.5067 104.49 11.3733 105.103 11.32V13.74C104.756 13.78 104.37 13.8467 103.943 13.94C103.53 14.02 103.13 14.12 102.743 14.24C102.37 14.36 102.05 14.4867 101.783 14.62V21H98.563ZM108.671 21.2C108.071 21.2 107.511 21.0933 106.991 20.88C106.485 20.6667 106.078 20.34 105.771 19.9C105.465 19.4467 105.311 18.8867 105.311 18.22C105.311 17.2467 105.638 16.4867 106.291 15.94C106.958 15.38 107.951 15.1 109.271 15.1H111.911V14.88C111.911 14.4 111.751 14.06 111.431 13.86C111.111 13.6467 110.511 13.54 109.631 13.54C108.551 13.54 107.491 13.7067 106.451 14.04V11.96C106.918 11.7733 107.485 11.62 108.151 11.5C108.831 11.38 109.545 11.32 110.291 11.32C111.758 11.32 112.905 11.62 113.731 12.22C114.571 12.82 114.991 13.7733 114.991 15.08V21H112.171L112.011 20.2C111.665 20.52 111.218 20.7667 110.671 20.94C110.138 21.1133 109.471 21.2 108.671 21.2ZM109.691 19.22C110.198 19.22 110.638 19.1333 111.011 18.96C111.385 18.7867 111.685 18.5667 111.911 18.3V16.96H109.631C108.685 16.96 108.211 17.34 108.211 18.1C108.211 18.4467 108.331 18.72 108.571 18.92C108.811 19.12 109.185 19.22 109.691 19.22ZM120.822 21.2C119.649 21.2 118.782 20.9 118.222 20.3C117.676 19.7 117.402 18.8733 117.402 17.82V13.96H116.122V11.52H117.402V9.54L120.622 8.68V11.52H122.922L122.782 13.96H120.622V17.6C120.622 18.0533 120.736 18.3733 120.962 18.56C121.189 18.7333 121.529 18.82 121.982 18.82C122.369 18.82 122.762 18.7533 123.162 18.62V20.8C122.536 21.0667 121.756 21.2 120.822 21.2ZM125.043 10.02V7.6H128.543V10.02H125.043ZM125.303 21V13.9H123.903L124.183 11.52H128.523V21H125.303ZM135.515 21.2C133.688 21.2 132.341 20.78 131.475 19.94C130.608 19.0867 130.175 17.86 130.175 16.26C130.175 14.6733 130.608 13.4533 131.475 12.6C132.355 11.7467 133.701 11.32 135.515 11.32C137.341 11.32 138.688 11.7467 139.555 12.6C140.435 13.4533 140.875 14.6733 140.875 16.26C140.875 17.86 140.441 19.0867 139.575 19.94C138.708 20.78 137.355 21.2 135.515 21.2ZM135.515 18.68C136.261 18.68 136.795 18.4933 137.115 18.12C137.435 17.7467 137.595 17.1267 137.595 16.26C137.595 15.3933 137.435 14.7733 137.115 14.4C136.795 14.0267 136.261 13.84 135.515 13.84C134.781 13.84 134.255 14.0267 133.935 14.4C133.615 14.7733 133.455 15.3933 133.455 16.26C133.455 17.1267 133.615 17.7467 133.935 18.12C134.255 18.4933 134.781 18.68 135.515 18.68ZM142.508 21V11.52H145.508L145.608 12.34C145.995 12.0733 146.482 11.84 147.068 11.64C147.655 11.4267 148.282 11.32 148.948 11.32C150.175 11.32 151.068 11.6133 151.628 12.2C152.188 12.7867 152.468 13.6933 152.468 14.92V21H149.248V15.18C149.248 14.6467 149.135 14.2667 148.908 14.04C148.682 13.8133 148.275 13.7 147.688 13.7C147.342 13.7 146.988 13.78 146.628 13.94C146.268 14.1 145.968 14.3 145.728 14.54V21H142.508Z" fill="#509EEC"/>
</svg>
