<svg width="100" height="100" viewBox="0 0 100 100" fill="none" xmlns="http://www.w3.org/2000/svg">
<path d="M13.9716 35.0811C13.7207 35.0811 13.4747 35.0112 13.2612 34.8793C13.0477 34.7473 12.8752 34.5585 12.7629 34.3341C12.6507 34.1096 12.6032 33.8583 12.6257 33.6084C12.6483 33.3584 12.74 33.1197 12.8905 32.9189C13.739 31.8079 14.658 30.7526 15.6419 29.7595C15.8968 29.5239 16.2326 29.3956 16.5796 29.4009C16.9267 29.4062 17.2584 29.5449 17.5059 29.7881C17.7535 30.0313 17.898 30.3605 17.9095 30.7074C17.921 31.0543 17.7985 31.3923 17.5676 31.6514C16.6661 32.5605 15.8242 33.527 15.0473 34.5446C14.9216 34.711 14.759 34.846 14.5724 34.939C14.3858 35.0321 14.1802 35.0807 13.9716 35.0811Z" fill="white"/>
<path d="M41.9324 92.4189C32.5298 92.4172 23.4831 88.8229 16.643 82.3714C9.80287 75.9198 5.68622 67.0986 5.13513 57.7122C5.12501 57.5347 5.14995 57.357 5.20852 57.1891C5.26708 57.0213 5.35813 56.8667 5.47646 56.734C5.5948 56.6014 5.73809 56.4934 5.89818 56.4161C6.05826 56.3389 6.23199 56.2939 6.40945 56.2838C6.58691 56.2737 6.76463 56.2986 6.93246 56.3572C7.10028 56.4157 7.25493 56.5068 7.38756 56.6251C7.5202 56.7434 7.62823 56.8867 7.70549 57.0468C7.78275 57.2069 7.82772 57.3806 7.83783 57.5581C8.16909 63.1731 9.88142 68.6196 12.8228 73.414C15.7643 78.2084 19.8438 82.2025 24.6994 85.0419C29.5549 87.8812 35.0364 89.4779 40.6572 89.6903C46.278 89.9027 51.8643 88.7242 56.9203 86.2595C61.7648 83.8933 65.9803 80.4136 69.2216 76.1052C72.4629 71.7968 74.6379 66.7821 75.5687 61.4715C76.4995 56.1609 76.1596 50.7054 74.5768 45.5515C72.9939 40.3975 70.2132 35.6916 66.4622 31.8189C61.1746 26.3575 54.2146 22.8184 46.6866 21.763C39.1585 20.7076 31.4936 22.1964 24.9081 25.9932C24.703 26.1127 24.4698 26.1756 24.2324 26.1757C23.9224 26.1787 23.6208 26.075 23.3782 25.882C23.1355 25.689 22.9666 25.4185 22.8998 25.1158C22.8329 24.813 22.8722 24.4965 23.011 24.2193C23.1498 23.9421 23.3797 23.7211 23.6622 23.5932C28.5631 20.7904 34.0426 19.1514 39.6776 18.8027C45.3126 18.4541 50.9524 19.4051 56.1614 21.5824C61.3705 23.7597 66.0095 27.105 69.7202 31.36C73.431 35.6151 76.1142 40.666 77.5627 46.1228C79.0113 51.5795 79.1864 57.2963 78.0745 62.8315C76.9627 68.3667 74.5936 73.5723 71.1502 78.0465C67.7068 82.5206 63.2813 86.1436 58.2152 88.6356C53.1492 91.1276 47.5782 92.422 41.9324 92.4189Z" fill="white"/>
<path d="M7.73107 47.4459C7.61519 47.4463 7.49976 47.4313 7.38783 47.4013C7.21612 47.3564 7.05495 47.278 6.91353 47.1708C6.7721 47.0635 6.6532 46.9294 6.5636 46.7762C6.474 46.623 6.41546 46.4536 6.39133 46.2778C6.3672 46.1019 6.37795 45.923 6.42297 45.7513C6.80572 44.3159 7.28566 42.9081 7.85945 41.5378C7.99636 41.2065 8.25929 40.9431 8.59039 40.8056C8.92149 40.6681 9.29365 40.6678 9.62499 40.8047C9.95633 40.9416 10.2197 41.2046 10.3572 41.5357C10.4947 41.8668 10.495 42.2389 10.3581 42.5703C9.83054 43.8275 9.38943 45.1192 9.03783 46.4365C8.96224 46.7255 8.793 46.9814 8.55657 47.164C8.32013 47.3467 8.02984 47.4458 7.73107 47.4459Z" fill="white"/>
<path d="M41.9338 80.1459C37.0738 80.1465 32.3228 78.7058 28.2816 76.0061C24.2405 73.3064 21.0906 69.4689 19.2305 64.979C17.3704 60.4891 16.8834 55.5484 17.8314 50.7818C18.7793 46.0151 21.1194 41.6367 24.5558 38.2C27.9923 34.7634 32.3706 32.423 37.1372 31.4749C41.9038 30.5267 46.8445 31.0133 51.3345 32.8732C55.8245 34.7331 59.6622 37.8827 62.3621 41.9238C65.062 45.9648 66.503 50.7157 66.5027 55.5757C66.4963 62.0899 63.9057 68.3355 59.2996 72.9419C54.6935 77.5483 48.448 80.1391 41.9338 80.1459ZM41.9338 33.7068C37.6084 33.7062 33.38 34.9884 29.7833 37.391C26.1866 39.7937 23.3832 43.2089 21.7276 47.2049C20.072 51.2009 19.6385 55.5981 20.482 59.8404C21.3255 64.0828 23.4081 67.9797 26.4665 71.0384C29.5248 74.0971 33.4214 76.1801 37.6637 77.0242C41.9059 77.8682 46.3031 77.4353 50.2993 75.7802C54.2955 74.125 57.7111 71.3221 60.1142 67.7257C62.5173 64.1293 63.8 59.901 63.8 55.5757C63.7939 49.778 61.4883 44.2195 57.389 40.1197C53.2897 36.0199 47.7314 33.7135 41.9338 33.7068Z" fill="white"/>
<path d="M41.9338 67.8689C39.5016 67.8689 37.124 67.1477 35.1018 65.7965C33.0795 64.4452 31.5033 62.5246 30.5726 60.2776C29.6418 58.0306 29.3983 55.558 29.8728 53.1725C30.3473 50.7871 31.5185 48.5959 33.2383 46.8761C34.9581 45.1563 37.1493 43.9851 39.5347 43.5106C41.9201 43.0361 44.3927 43.2796 46.6398 44.2104C48.8868 45.1412 50.8074 46.7173 52.1586 48.7396C53.5099 50.7619 54.2311 53.1395 54.2311 55.5716C54.2282 58.8322 52.9317 61.9584 50.6261 64.264C48.3206 66.5695 45.1943 67.8661 41.9338 67.8689ZM41.9338 45.9838C40.0361 45.9838 38.1811 46.5465 36.6033 47.6008C35.0255 48.655 33.7957 50.1535 33.0695 51.9067C32.3433 53.6599 32.1533 55.589 32.5235 57.4502C32.8938 59.3114 33.8075 61.021 35.1494 62.3628C36.4912 63.7046 38.2008 64.6184 40.062 64.9886C41.9231 65.3588 43.8523 65.1688 45.6055 64.4426C47.3587 63.7164 48.8571 62.4867 49.9114 60.9089C50.9657 59.331 51.5284 57.476 51.5284 55.5784C51.5262 53.0344 50.5147 50.5952 48.7158 48.7964C46.9169 46.9975 44.4778 45.9859 41.9338 45.9838Z" fill="white"/>
<path d="M43.5811 55.5757C43.3127 55.5756 43.0504 55.4957 42.8276 55.346C42.6049 55.1963 42.4317 54.9837 42.3302 54.7352C42.2288 54.4868 42.2036 54.2137 42.2579 53.9509C42.3122 53.6881 42.4435 53.4473 42.6351 53.2594L79.1784 17.4838C79.3044 17.3566 79.4546 17.2557 79.6199 17.1871C79.7853 17.1184 79.9627 17.0833 80.1418 17.0838C80.3209 17.0843 80.4981 17.1204 80.6631 17.1899C80.8282 17.2595 80.9777 17.3612 81.1031 17.4891C81.2284 17.617 81.3271 17.7685 81.3934 17.9348C81.4597 18.1012 81.4923 18.2791 81.4893 18.4582C81.4862 18.6372 81.4476 18.8139 81.3757 18.9779C81.3037 19.1419 81.1999 19.29 81.0703 19.4135L44.527 55.1892C44.2744 55.4368 43.9348 55.5756 43.5811 55.5757Z" fill="white"/>
<path d="M85.4905 25.2703H85.4149L75.0405 24.6878C74.7132 24.6694 74.4037 24.5326 74.1697 24.3028C73.9358 24.0731 73.7933 23.7661 73.7689 23.4392L72.9405 12.4216C72.9257 12.2265 72.9534 12.0304 73.0218 11.847C73.0901 11.6636 73.1975 11.4973 73.3365 11.3594L81.6541 3.09458C81.8278 2.92217 82.0451 2.80019 82.2828 2.74166C82.5204 2.68313 82.7696 2.69025 83.0035 2.76226C83.2374 2.83427 83.4474 2.96847 83.611 3.15053C83.7746 3.33258 83.8857 3.55566 83.9324 3.79593L85.6892 12.8581L93.8311 14.5473C94.0698 14.5973 94.2905 14.7109 94.4699 14.8762C94.6492 15.0415 94.7805 15.2523 94.8498 15.4861C94.9191 15.72 94.9237 15.9682 94.8634 16.2046C94.803 16.4409 94.6797 16.6564 94.5068 16.8284L86.4446 24.8649C86.3201 24.9919 86.1717 25.0931 86.008 25.1627C85.8443 25.2322 85.6684 25.2688 85.4905 25.2703ZM76.3757 22.0527L84.9649 22.5351L90.8311 16.6905L84.2649 15.3284C84.0042 15.2742 83.7654 15.1442 83.5783 14.9547C83.3913 14.7653 83.2644 14.5248 83.2135 14.2635L81.7568 6.79593L75.6757 12.8297L76.3757 22.0527Z" fill="white"/>
<path d="M63.5324 97.2973C63.3163 97.2977 63.1033 97.2462 62.9112 97.1472C62.7191 97.0482 62.5535 96.9046 62.4284 96.7284L56.4176 88.2554C56.3099 88.1111 56.2322 87.9466 56.189 87.7718C56.1457 87.597 56.1379 87.4153 56.1659 87.2374C56.1939 87.0595 56.2572 86.889 56.352 86.7359C56.4469 86.5828 56.5714 86.4502 56.7182 86.3459C56.865 86.2416 57.0312 86.1677 57.207 86.1285C57.3827 86.0894 57.5646 86.0857 57.7418 86.1178C57.919 86.1499 58.088 86.2171 58.2388 86.3155C58.3897 86.4139 58.5194 86.5414 58.6203 86.6906L63.9027 94.1338L69.5973 90.6473L64.4446 82.7919C64.347 82.6435 64.2796 82.4772 64.2462 82.3027C64.2128 82.1282 64.2142 81.9489 64.2501 81.7749C64.2861 81.6009 64.3559 81.4357 64.4557 81.2887C64.5555 81.1417 64.6833 81.0159 64.8317 80.9183C64.9802 80.8207 65.1464 80.7532 65.3209 80.7199C65.4954 80.6865 65.6748 80.6878 65.8488 80.7238C66.0227 80.7597 66.1879 80.8296 66.3349 80.9294C66.4819 81.0292 66.6078 81.157 66.7054 81.3054L72.6216 90.3257C72.7206 90.477 72.7882 90.6466 72.8205 90.8245C72.8528 91.0024 72.849 91.1849 72.8094 91.3613C72.7699 91.5378 72.6953 91.7044 72.5901 91.8515C72.485 91.9986 72.3514 92.1231 72.1973 92.2176L64.2365 97.0919C64.0252 97.224 63.7816 97.295 63.5324 97.2973Z" fill="white"/>
<path d="M20.3351 97.2973C20.0862 97.2973 19.8421 97.2286 19.6297 97.0986L11.6689 92.2243C11.5148 92.1298 11.3812 92.0053 11.2761 91.8582C11.1709 91.7112 11.0963 91.5445 11.0568 91.3681C11.0172 91.1917 11.0134 91.0091 11.0457 90.8312C11.078 90.6533 11.1456 90.4837 11.2446 90.3324L17.1621 81.3094C17.3593 81.0096 17.6674 80.8004 18.0188 80.7278C18.3702 80.6552 18.736 80.7252 19.0358 80.9223C19.3356 81.1194 19.5448 81.4276 19.6174 81.7789C19.69 82.1303 19.6201 82.4961 19.423 82.7959L14.2703 90.6473L19.9649 94.1338L25.2459 86.6905C25.3487 86.5458 25.4789 86.4227 25.6292 86.3284C25.7796 86.234 25.947 86.1701 26.122 86.1404C26.297 86.1108 26.4761 86.1158 26.6491 86.1554C26.8221 86.1949 26.9857 86.2682 27.1304 86.3709C27.2751 86.4737 27.3982 86.6039 27.4926 86.7542C27.5869 86.9046 27.6508 87.072 27.6805 87.247C27.7102 87.422 27.7051 87.6011 27.6655 87.7741C27.626 87.9471 27.5527 88.1107 27.45 88.2554L21.4378 96.7284C21.3128 96.9044 21.1475 97.0479 20.9556 97.1469C20.7638 97.2459 20.551 97.2974 20.3351 97.2973Z" fill="white"/>
</svg>
