<svg width="100" height="86" viewBox="0 0 100 86" fill="none" xmlns="http://www.w3.org/2000/svg">
<path d="M99.2785 34.8195C98.8314 34.5557 98.2783 34.5471 97.8238 34.7973L79.5291 44.8695V41.3598C79.5291 37.6408 76.5035 34.6152 72.7846 34.6152H68.9701C74.1291 31.3045 77.5543 25.5174 77.5543 18.9453C77.5543 15.642 76.6771 12.3971 75.0176 9.56113C74.608 8.86133 73.709 8.62578 73.0096 9.03574C72.31 9.44512 72.0748 10.3441 72.4842 11.0437C73.8809 13.4303 74.6189 16.1627 74.6189 18.9455C74.6189 27.5859 67.5894 34.6154 58.949 34.6154C50.3086 34.6154 43.2791 27.5859 43.2791 18.9455C43.2791 10.3051 50.3086 3.27539 58.949 3.27539C62.6289 3.27539 66.2049 4.57617 69.018 6.93828C69.6391 7.45957 70.5645 7.3791 71.0857 6.75781C71.607 6.13711 71.5264 5.21133 70.9055 4.69004C67.5643 1.88477 63.3182 0.339844 58.949 0.339844C49.8627 0.339844 42.2791 6.88789 40.6635 15.5125C38.1893 12.5104 34.4439 10.593 30.2588 10.593C22.8266 10.593 16.7801 16.6396 16.7801 24.0719C16.7801 28.3375 18.774 32.1439 21.8764 34.6156C18.1609 34.6197 15.1395 37.6436 15.1395 41.36V41.5977H9.16367L2.09668 38.2498C1.16602 37.775 -0.0302732 38.532 0.000586131 39.5762V57.7896C-0.0308592 58.8342 1.16758 59.591 2.09668 59.1162L9.16367 55.7684H15.1396V78.915C15.1396 82.6342 18.1652 85.6598 21.8842 85.6598H60.1021C60.9127 85.6598 61.5699 85.0027 61.5699 84.192C61.5699 83.3812 60.9129 82.7242 60.1021 82.7242H21.8842C19.7838 82.7242 18.075 81.0154 18.075 78.9148V41.36C18.075 39.2596 19.7838 37.5508 21.8842 37.5508H72.7846C74.885 37.5508 76.5937 39.2594 76.5937 41.36V78.9152C76.5937 81.0156 74.885 82.7246 72.7846 82.7246H65.9728C65.1623 82.7246 64.5051 83.3816 64.5051 84.1924C64.5051 85.0031 65.1621 85.6602 65.9728 85.6602H72.7846C76.5035 85.6602 79.5291 82.6346 79.5291 78.9154V67.2656L97.8238 77.3379C98.7555 77.8889 100.033 77.1342 99.9994 76.0521V36.0832C99.9994 35.5641 99.7252 35.0836 99.2785 34.8195ZM2.93594 41.8955L7.36563 43.9941V53.3721L2.93594 55.4707V41.8955ZM10.3012 52.8332V44.533H15.1396V52.8332H10.3012ZM19.7154 24.0719C19.7154 18.2582 24.4451 13.5283 30.2588 13.5283C36.0725 13.5283 40.8023 18.2582 40.8023 24.0719C40.8023 29.8855 36.0727 34.6154 30.2588 34.6154C24.4453 34.6154 19.7154 29.8855 19.7154 24.0719ZM38.6416 34.6154C40.6176 33.0412 42.142 30.9256 42.9891 28.4936C44.4717 30.9625 46.5084 33.0621 48.9291 34.6154H38.6416ZM97.0641 73.5687L79.5293 63.9146V48.2207L97.0641 38.5666V73.5687Z" fill="#333333"/>
<path d="M51.4664 18.9455C51.4664 23.0715 54.823 26.4281 58.949 26.4281C63.0748 26.4281 66.4316 23.0715 66.4316 18.9455C66.4316 14.8195 63.075 11.4629 58.949 11.4629C54.823 11.4629 51.4664 14.8195 51.4664 18.9455ZM63.4961 18.9455C63.4961 21.4527 61.4562 23.4926 58.949 23.4926C56.4416 23.4926 54.4018 21.4527 54.4018 18.9455C54.4018 16.4383 56.4416 14.3982 58.949 14.3982C61.4562 14.3984 63.4961 16.4383 63.4961 18.9455Z" fill="#333333"/>
<path d="M30.2588 29.3598C33.1746 29.3598 35.5467 26.9875 35.5467 24.0719C35.5467 21.1562 33.1746 18.7842 30.2588 18.7842C27.3432 18.7842 24.9709 21.1562 24.9709 24.0719C24.9711 26.9877 27.3432 29.3598 30.2588 29.3598ZM30.2588 21.7195C31.5561 21.7195 32.6113 22.7748 32.6113 24.0719C32.6113 25.3691 31.5561 26.4244 30.2588 26.4244C28.9617 26.4244 27.9064 25.3691 27.9064 24.0719C27.9064 22.7748 28.9617 21.7195 30.2588 21.7195Z" fill="#333333"/>
<path d="M64.5053 63.9656V47.9541C64.5053 46.0658 62.9689 44.5295 61.0807 44.5295H45.2055C44.3949 44.5295 43.7377 45.1865 43.7377 45.9973C43.7377 46.808 44.3947 47.465 45.2055 47.465H61.0807C61.3504 47.465 61.5699 47.6844 61.5699 47.9543V63.9658C61.5699 64.2357 61.3504 64.4551 61.0807 64.4551H33.5881C33.3184 64.4551 33.0988 64.2357 33.0988 63.9658V47.9543C33.0988 47.6844 33.3184 47.465 33.5881 47.465H39.3348C40.1453 47.465 40.8025 46.808 40.8025 45.9973C40.8025 45.1865 40.1455 44.5295 39.3348 44.5295H33.5881C31.6998 44.5295 30.1635 46.0658 30.1635 47.9541V63.9656C30.1635 65.8539 31.6998 67.3902 33.5881 67.3902H61.0807C62.9689 67.3902 64.5053 65.8539 64.5053 63.9656Z" fill="#333333"/>
<path d="M55.2301 72.4918C54.4195 72.4918 53.7625 73.1488 53.7625 73.9596C53.7625 74.7703 54.4195 75.4273 55.2301 75.4273H58.8912C59.7018 75.4273 60.359 74.7703 60.359 73.9596C60.359 73.1488 59.702 72.4918 58.8912 72.4918H55.2301Z" fill="#333333"/>
<path d="M45.5037 72.4918C44.6932 72.4918 44.0359 73.1488 44.0359 73.9596C44.0359 74.7703 44.693 75.4273 45.5037 75.4273H49.165C49.9756 75.4273 50.6328 74.7703 50.6328 73.9596C50.6328 73.1488 49.9758 72.4918 49.165 72.4918H45.5037Z" fill="#333333"/>
<path d="M35.7771 72.4918C34.9666 72.4918 34.3094 73.1488 34.3094 73.9596C34.3094 74.7703 34.9666 75.4273 35.7771 75.4273H39.4385C40.249 75.4273 40.9063 74.7703 40.9063 73.9596C40.9063 73.1488 40.2492 72.4918 39.4385 72.4918H35.7771Z" fill="#333333"/>
</svg>
